<svg xmlns="http://www.w3.org/2000/svg" version="1.1" width="100%" height="100%" viewBox="0 0 1000 600"><rect width="1000" height="600" x="0" y="0" fill="#181f2e"/><g><rect width="333.3333333333333" height="333.3333333333333" rx="13.333333333333334" ry="13.333333333333334" y="178.33990717390552" fill="#e9925f" transform="matrix(0.8006781785874625,0,0,0.8006781785874625,0,23.760785450820947)" x="156.11769104003906"/><path d="M323.5302464602654 420.00657897111955L283.53539028390287 420.00657897111955L283.53539028390287 270.00657818620243L317.9746908756388 270.00657818620243Q328.1598761141209 270.00657818620243 335.64444405452053 272.21851235415556Q343.15473215966387 274.4561666868524 348.1444441199303 279.08579634070793Q353.1598762449404 283.71542599456336 355.55185156609906 290.83991162855204Q357.96954705200136 297.96439726254073 357.96954705200136 307.60945904140624L357.96954705200136 307.60945904140624Q357.96954705200136 316.8687183491172 355.65473222507364 323.60740151195125Q353.3399173981459 330.371804839529 348.60740708531586 334.2555497158188Q343.9006169372295 338.1650147568523 336.4932094910607 339.270981840829L336.4932094910607 339.270981840829Q345.57242764556617 341.30287485557665 351.1279832301927 346.2154263216122Q356.68353881481926 351.12797778764764 359.358435948158 358.7925868812529Q362.0333330814967 366.4829161396017 362.0333330814967 377.23394500244376L362.0333330814967 377.23394500244376Q362.0333330814967 386.8532866165657 359.82139891354353 394.8265376870945Q357.6094647455904 402.77406859287976 352.87695443276033 408.3296241775064Q348.1444441199303 413.8851797621329 340.8399173327361 416.9458793666263Q333.53539054554193 420.00657897111955 323.5302464602654 420.00657897111955L323.5302464602654 420.00657897111955ZM304.44588422048344 348.53024114853986L304.44588422048344 405.0117229255766L318.5148143352553 405.0117229255766Q332.60946461477084 405.0117229255766 337.3162547628572 398.42736075120433Q342.04876507568724 391.8687187415758 342.04876507568724 377.23394500244376L342.04876507568724 377.23394500244376Q342.04876507568724 367.7946445415273 339.55390909555405 361.39032352036065Q337.03333295067716 355.0117226639376 331.5806580250252 351.7709819062387Q326.1279830993732 348.53024114853986 316.86872379166226 348.53024114853986L316.86872379166226 348.53024114853986L304.44588422048344 348.53024114853986ZM304.44588422048344 285.56727785610553L304.44588422048344 332.6094591722258L316.86872379166226 332.6094591722258Q325.7421806282186 332.6094591722258 330.75761275322867 330.08888302734897Q335.7473247134951 327.5940270472157 337.77921772824277 322.0384714625892Q339.8111107429905 316.48291587796257 339.8111107429905 307.60945904140624L339.8111107429905 307.60945904140624Q339.8111107429905 297.2185124849751 336.6732506442662 292.5888828311197Q333.53539054554193 287.95925317726415 326.84814771219516 286.77612559905674Q320.186625043592 285.56727785610553 309.4613163454935 285.56727785610553L309.4613163454935 285.56727785610553L304.44588422048344 285.56727785610553Z " fill="#181f2e" transform="matrix(0.8006781785874625,0,0,0.8006781785874625,0,23.760785450820947)"/><path d="M605.539591725887 392.85449452643843L572.784360297881 392.85449452643843L572.784360297881 270.00657832828335L600.9896689037332 270.00657832828335Q609.331194077682 270.00657832828335 615.4609512130837 271.8181216741409Q621.6117728059955 273.65072947750843 625.69827756293 277.4423318293034Q629.8058467773744 281.2339341810983 631.7648413258019 287.06878891136046Q633.7449003317392 292.9036436416226 633.7449003317392 300.802815207862L633.7449003317392 300.802815207862Q633.7449003317392 308.38601991145185 631.8490991558417 313.9049077790644Q629.9532979799443 319.444860104187 626.0774377981095 322.62559318819274Q622.2226420737848 325.82739072970844 616.1560783109128 326.73316240263716L616.1560783109128 326.73316240263716Q623.5918318119329 328.39725454592497 628.1417546340867 332.42056593032953Q632.6916774562405 336.4438773147342 634.8823810372777 342.7210856527057Q637.0730846183147 349.0193584481873 637.0730846183147 357.8243016873555L637.0730846183147 357.8243016873555Q637.0730846183147 365.7024087960849 635.2615412724572 372.2323906241761Q633.4499979265996 378.74130799475745 629.5741377447648 383.29123081691125Q625.69827756293 387.84115363906517 619.715971630098 390.3478240827518Q613.7336656972661 392.85449452643843 605.539591725887 392.85449452643843L605.539591725887 392.85449452643843ZM589.909764253488 334.31636710622706L589.909764253488 380.573915798125L601.4320225114426 380.573915798125Q612.9753452269072 380.573915798125 616.8301409512319 375.1814146755722Q620.7060011330667 369.80997801052945 620.7060011330667 357.8243016873555L620.7060011330667 357.8243016873555Q620.7060011330667 350.09364578119585 618.6627487545995 344.84859586121286Q616.5984319186223 339.62461039873995 612.1327669265082 336.97048875248345Q607.6671019343942 334.31636710622706 600.0838972308044 334.31636710622706L600.0838972308044 334.31636710622706L589.909764253488 334.31636710622706ZM589.909764253488 282.75057512181627L589.909764253488 321.2774679075545L600.0838972308044 321.2774679075545Q607.3511350717447 321.2774679075545 611.4587042861891 319.2131510715773Q615.5452090431236 317.1698986931101 617.2093011864115 312.6199758709562Q618.8733933296992 308.07005304880227 618.8733933296992 300.802815207862L618.8733933296992 300.802815207862Q618.8733933296992 292.2927743738335 616.3035295134825 288.50117202203853Q613.7336656972661 284.7095696702436 608.2569067446734 283.74060462478496Q602.8012122495907 282.75057512181627 594.0173334679325 282.75057512181627L594.0173334679325 282.75057512181627L589.909764253488 282.75057512181627ZM668.6276419682524 392.85449452643843L652.4080096855741 392.85449452643843L652.4080096855741 270.00657832828335L668.6276419682524 270.00657832828335L668.6276419682524 392.85449452643843ZM709.7243985702073 394.07623306201685L709.7243985702073 394.07623306201685Q700.0136836581103 394.07623306201685 694.4105379604578 390.1161150501422Q688.8073922628053 386.1770614957775 686.4481730216885 378.90982365483717Q684.0889537805717 371.621521356387 684.0889537805717 361.7633552417202L684.0889537805717 361.7633552417202L684.0889537805717 336.2753616546544Q684.0889537805717 326.4171955399877 686.4481730216885 319.1499576990474Q688.8073922628053 311.8616554005972 694.4105379604578 307.9226018462325Q700.0136836581103 303.9835482918678 709.7243985702073 303.9835482918678L709.7243985702073 303.9835482918678Q719.4351134823041 303.9835482918678 724.9750658074267 307.9226018462325Q730.5150181325494 311.8616554005972 732.8531729161562 319.1499576990474Q735.2123921572731 326.4171955399877 735.2123921572731 336.2753616546544L735.2123921572731 336.2753616546544L735.2123921572731 361.7633552417202Q735.2123921572731 371.621521356387 732.8531729161562 378.90982365483717Q730.5150181325494 386.1770614957775 724.9750658074267 390.1161150501422Q719.4351134823041 394.07623306201685 709.7243985702073 394.07623306201685ZM709.7243985702073 382.0905567388429L709.7243985702073 382.0905567388429Q714.4217725949309 382.0905567388429 716.3175737708284 379.35217726254666Q718.2133749467259 376.63486224376027 718.5925351819053 372.14813279413625Q718.9716954170849 367.6824678020223 718.9716954170849 362.8165781172188L718.9716954170849 362.8165781172188L718.9716954170849 335.36958998172565Q718.9716954170849 330.37731355186236 718.5925351819053 325.9748419322782Q718.2133749467259 321.57237031269415 716.3175737708284 318.7707974638679Q714.4217725949309 315.96922461504164 709.7243985702073 315.96922461504164L709.7243985702073 315.96922461504164Q705.0270245454835 315.96922461504164 703.0469655395461 318.7707974638679Q701.0879709911189 321.57237031269415 700.7088107559393 325.9748419322782Q700.32965052076 330.37731355186236 700.32965052076 335.36958998172565L700.32965052076 335.36958998172565L700.32965052076 362.8165781172188Q700.32965052076 367.6824678020223 700.7088107559393 372.14813279413625Q701.0879709911189 376.63486224376027 703.0469655395461 379.35217726254666Q705.0270245454835 382.0905567388429 709.7243985702073 382.0905567388429ZM772.8124488125725 420.00658025679206L772.8124488125725 420.00658025679206Q764.9343417038431 420.00658025679206 758.5728755358316 418.34248811350426Q752.1903449103102 416.6573315127065 748.5461937610851 413.0342448209914Q744.92310706937 409.3900936717663 744.92310706937 403.4709811114642L744.92310706937 403.4709811114642Q744.92310706937 399.2159606944499 746.7346504152276 396.03522761044417Q748.5461937610851 392.85449452643843 751.4320244399512 390.49527528532167Q754.3178551188173 388.15712050171476 757.4985882028232 386.6404795609968L757.4985882028232 386.6404795609968Q753.2646322433188 385.4187410254184 751.1371220348117 382.764619379162Q749.0096118263045 380.1104977329056 749.0096118263045 377.2246670540394L749.0096118263045 377.2246670540394Q749.0096118263045 372.379841826746 751.5794756425212 368.88314188009065Q754.1704039162476 365.4075063909453 758.7203267384016 361.29993717650086L758.7203267384016 361.29993717650086Q753.7069858510283 357.5083348247059 751.1371220348117 351.6102867219138Q748.5461937610851 345.6911741616118 748.5461937610851 335.2221387791558L748.5461937610851 335.2221387791558Q748.5461937610851 324.90055459926964 751.3688310674213 318.0124769935089Q754.1704039162476 311.10333493023813 759.7103562413702 307.543441611053Q765.2292441089828 303.9835482918678 773.2758668777919 303.9835482918678L773.2758668777919 303.9835482918678Q780.3956535161624 303.9835482918678 784.7349317632165 306.40596090551446Q789.0531455527607 308.82837351916123 791.3281069638376 313.69426320396474L791.3281069638376 313.69426320396474Q792.0864274341968 312.4725246683863 795.4146117207722 309.5235006169903Q798.7638604648578 306.55341210808433 803.1452676269319 304.5944175596569L803.1452676269319 304.5944175596569L805.5887446980887 303.52013022664835L809.675249455023 313.98916560910436Q807.6951904490859 314.284068014244 804.4512639925501 315.42154871978244Q801.1862730785044 316.5590294253209 798.3847002296782 317.69651013085934Q795.562062923342 318.8339908363978 794.803742452983 319.59231130675676L794.803742452983 319.59231130675676Q795.8780297859917 322.18323958048336 796.6995436288805 327.0280648077768Q797.5421219292793 331.8939544925803 797.5421219292793 335.68555684437524L797.5421219292793 335.68555684437524Q797.5421219292793 344.61688682860324 795.2671605182024 351.44177106183406Q792.9921991071255 358.2666552950649 787.7682136446524 362.1425154768997Q782.5231637246695 366.0183756587345 773.2758668777919 366.0183756587345L773.2758668777919 366.0183756587345Q771.2958078718545 366.0183756587345 769.0208464607776 365.7024087960849Q766.7458850497007 365.4075063909453 764.9343417038431 364.94408832572594L764.9343417038431 364.94408832572594Q764.0285700309144 366.3132780638741 763.0385405279458 368.1248214097317Q762.048511024977 369.9574292130992 762.048511024977 371.621521356387L762.048511024977 371.621521356387Q762.048511024977 373.2856134996747 763.7968609983047 374.2756430026434Q765.5452109716323 375.2656725056121 769.3368133234271 375.5605749107517L769.3368133234271 375.5605749107517L782.986581789889 376.78231344633Q793.287101512265 377.68808511925886 798.3004423996383 382.99632841177174Q803.3137832870116 388.3045717042846 803.3137832870116 398.1627378189513L803.3137832870116 398.1627378189513Q803.3137832870116 405.28252445732176 799.9645345429262 410.21160751465516Q796.6363502563506 415.14069057198856 789.8746593956496 417.5841676431453Q783.1340329924587 420.00658025679206 772.8124488125725 420.00658025679206ZM774.0341873481509 407.26258346325915L774.0341873481509 407.26258346325915Q782.6706149272393 407.26258346325915 786.7781841416838 405.21933108479186Q790.8646888986184 403.1760787063246 790.8646888986184 398.62615588417077L790.8646888986184 398.62615588417077Q790.8646888986184 395.8877764078744 789.8746593956496 394.07623306201685Q788.905694350191 392.24362525864933 786.3147660764644 391.19040238315074Q783.744902260248 390.1161150501422 778.8790125754444 389.6737614424327L778.8790125754444 389.6737614424327L765.081792906413 388.4520229068544Q763.4177007631251 390.1161150501422 761.9010598224072 391.80127165093984Q760.3844188816893 393.46536379422764 759.4786472087605 395.36116497012506Q758.5728755358316 397.2569661460226 758.5728755358316 399.38447635452974L758.5728755358316 399.38447635452974Q758.5728755358316 403.32352990889444 761.9010598224072 405.28252445732176Q765.2292441089828 407.26258346325915 774.0341873481509 407.26258346325915ZM773.2758668777919 354.64356860334976L773.2758668777919 354.64356860334976Q776.7725668244473 354.64356860334976 778.8158192029146 353.3375722377315Q780.8590715813818 352.0526403296233 781.9122944568803 349.54596988593664Q782.986581789889 347.06036389976 783.3657420250684 343.4162127505348Q783.744902260248 339.7720616013097 783.744902260248 335.2221387791558L783.744902260248 335.2221387791558Q783.744902260248 330.672215957002 783.3657420250684 326.9648714352469Q782.986581789889 323.23646245598195 781.9965522869202 320.58234080972545Q781.0065227839516 317.92821916346907 778.9632704054843 316.5590294253209Q776.920018027017 315.2109041446827 773.4233180803617 315.2109041446827L773.4233180803617 315.2109041446827Q770.0951337937863 315.2109041446827 767.8833657552391 316.5590294253209Q765.692662174202 317.92821916346907 764.6394392987036 320.4348896071557Q763.5651519656949 322.9415600508423 763.1227983579856 326.6489045725973Q762.6593802927662 330.37731355186236 762.6593802927662 335.2221387791558L762.6593802927662 335.2221387791558Q762.6593802927662 339.30864353609036 763.0385405279458 342.88960131278554Q763.4177007631251 346.44949463197077 764.5551814686637 349.0193584481873Q765.692662174202 351.6102867219138 767.8201723827092 353.12692766263183Q769.9476825912163 354.64356860334976 773.2758668777919 354.64356860334976ZM847.2963705678326 392.85449452643843L827.4115226784193 392.85449452643843L810.1386675202425 305.18422236993615L826.5057510054905 305.18422236993615L837.2696887930861 375.70802611332147L848.2021422407613 305.18422236993615L863.9794209157303 305.18422236993615L847.2963705678326 392.85449452643843ZM898.6936468921635 394.07623306201685L898.6936468921635 394.07623306201685Q888.3931271697875 394.07623306201685 882.768917014625 390.0529216776122Q877.1657713169725 386.0296102932076 874.9750677359355 378.2146965570081Q872.7632996973884 370.3997828208086 872.7632996973884 359.02497576542385L872.7632996973884 359.02497576542385L872.7632996973884 339.01374113095073Q872.7632996973884 327.3440316704264 875.0382611084653 319.59231130675676Q877.3132225195425 311.8616554005972 883.0006260472346 307.9226018462325Q888.688029574927 303.9835482918678 898.6936468921635 303.9835482918678L898.6936468921635 303.9835482918678Q909.7735515424088 303.9835482918678 914.9975370048817 308.5334711140216Q920.2425869248648 313.0833939361755 921.9066790681525 321.656628142734Q923.5707712114402 330.2087978917825 923.5707712114402 342.1944742149565L923.5707712114402 342.1944742149565L923.5707712114402 349.3353253108369L889.0039964375767 349.3353253108369L889.0039964375767 366.9241473316632Q889.0039964375767 372.2323906241761 889.9729614830353 375.5605749107517Q890.9629909860041 378.90982365483717 893.1747590245511 380.4896579680851Q895.3654626055882 382.0905567388429 898.8621625522435 382.0905567388429L898.8621625522435 382.0905567388429Q902.4852492439586 382.0905567388429 904.3810504198561 380.34220676551524Q906.2768515957534 378.5938567921876 906.9719786935825 375.328865878142Q907.6460413339016 372.08493942160635 907.6460413339016 367.6824678020223L907.6460413339016 367.6824678020223L907.6460413339016 362.3742245095094L923.4233200088704 362.3742245095094L923.4233200088704 365.7024087960849Q923.4233200088704 378.90982365483717 917.8201743112179 386.49302835842695Q912.1959641560554 394.07623306201685 898.6936468921635 394.07623306201685ZM889.0039964375767 335.833008046945L889.0039964375767 340.53038207166867L907.6460413339016 340.53038207166867L907.6460413339016 332.65227496293926Q907.6460413339016 327.17551601034666 907.0351720661124 323.46817148859157Q906.4453672558332 319.7608269668366 904.5495660799356 317.86502579093917Q902.6537649040383 315.96922461504164 898.5461956895938 315.96922461504164L898.5461956895938 315.96922461504164Q894.6071421352292 315.96922461504164 892.5638897567619 317.7807679608992Q890.5206373782946 319.59231130675676 889.7623169079357 323.931589553811Q889.0039964375767 328.2498033433552 889.0039964375767 335.833008046945L889.0039964375767 335.833008046945ZM954.977877358808 392.85449452643843L938.73718061862 392.85449452643843L938.73718061862 305.18422236993615L954.977877358808 305.18422236993615L954.977877358808 317.63331675832944Q959.8227025861015 309.5866939895202 964.667527813395 306.8693789707339Q969.5334174981986 304.13099949443756 974.3782427254921 304.13099949443756L974.3782427254921 304.13099949443756Q974.9891119932811 304.13099949443756 975.5157234310304 304.13099949443756Q976.0423348687798 304.13099949443756 976.9691709992185 304.2784506970073L976.9691709992185 304.2784506970073L976.9691709992185 322.18323958048336Q975.1365631958511 321.4249191101244 972.7984084122443 320.89830767237504Q970.4391891711273 320.3506317771157 968.0167765574806 320.3506317771157L968.0167765574806 320.3506317771157Q964.2251742056858 320.3506317771157 961.1076344942098 322.0989817504434Q958.0111592402441 323.84733172377105 954.977877358808 328.8606726111443L954.977877358808 328.8606726111443L954.977877358808 392.85449452643843ZM1007.3019898135778 394.07623306201685L1007.3019898135778 394.07623306201685Q996.5169875684724 394.07623306201685 990.0080701978911 387.31454220131593Q983.4780883697997 380.573915798125 982.5723166968712 369.49401114787986L982.5723166968712 369.49401114787986L996.0746339607629 365.4075063909453Q997.2753080388313 373.74903156489415 1000.1611387176974 377.9197941518685Q1003.0469693965636 382.0905567388429 1008.6501150942161 382.0905567388429L1008.6501150942161 382.0905567388429Q1013.0525867138001 382.0905567388429 1015.327548124877 379.5838862951563Q1017.6025095359541 377.07721585146965 1017.6025095359541 372.8432598919653L1017.6025095359541 372.8432598919653Q1017.6025095359541 369.05165754017037 1015.9384173926662 366.0183756587345Q1014.2743252493785 362.9850937772985 1010.4827228975837 359.7832962357828L1010.4827228975837 359.7832962357828L995.4637646929737 346.89184823968014Q990.9138418708199 342.95279468531544 987.7963021593441 338.107969458022Q984.6998269053781 333.2420797732185 984.6998269053781 325.51142386705885L984.6998269053781 325.51142386705885Q984.6998269053781 318.53908843125816 987.5013997542044 313.75745657649463Q990.3029726030306 308.9758247217311 995.3795068629338 306.49021873555444Q1000.4771055803469 303.9835482918678 1007.3019898135778 303.9835482918678L1007.3019898135778 303.9835482918678Q1017.7499607385239 303.9835482918678 1023.2899130636463 310.72417469505865Q1028.829865388769 317.4858655557596 1029.588185859128 327.0280648077768L1029.588185859128 327.0280648077768L1018.6767968689626 331.1356340222213Q1018.0659276011734 326.5857112000674 1016.8441890655952 323.17326908345206Q1015.6435149875267 319.7608269668366 1013.5160047790196 317.86502579093917Q1011.3884945705124 315.96922461504164 1007.8917946238571 315.96922461504164L1007.8917946238571 315.96922461504164Q1003.9527410694923 315.96922461504164 1001.6145862858855 318.62334626129814Q999.2553670447687 321.2774679075545 999.2553670447687 324.90055459926964L999.2553670447687 324.90055459926964Q999.2553670447687 327.17551601034666 1000.2453965477373 329.38728404889366Q1001.2354260507059 331.5779876299307 1003.6578386643528 333.70549783843785L1003.6578386643528 333.70549783843785L1019.1191504766721 347.9661355726887Q1022.2998835606777 350.8519662515548 1025.122520867014 354.1801505381304Q1027.9240937158402 357.5083348247059 1029.7356370616978 361.7633552417202Q1031.5682448650653 366.0183756587345 1031.5682448650653 371.621521356387L1031.5682448650653 371.621521356387Q1031.5682448650653 379.05727485740704 1028.5349629836294 384.04955128727033Q1025.5016811021935 389.0628921746436 1020.0249221496008 391.5695626183302Q1014.569227654518 394.07623306201685 1007.3019898135778 394.07623306201685ZM1067.9676274422964 394.07623306201685L1067.9676274422964 394.07623306201685Q1057.6460432624103 394.07623306201685 1052.0428975647578 390.0529216776122Q1046.4186874095953 386.0296102932076 1044.2279838285583 378.2146965570081Q1042.0162157900113 370.3997828208086 1042.0162157900113 359.02497576542385L1042.0162157900113 359.02497576542385L1042.0162157900113 339.01374113095073Q1042.0162157900113 327.3440316704264 1044.2911772010882 319.59231130675676Q1046.566138612165 311.8616554005972 1052.2535421398575 307.9226018462325Q1057.9409456675498 303.9835482918678 1067.9676274422964 303.9835482918678L1067.9676274422964 303.9835482918678Q1079.0264676350316 303.9835482918678 1084.2715175550145 308.5334711140216Q1089.4955030174874 313.0833939361755 1091.1595951607753 321.656628142734Q1092.823687304063 330.2087978917825 1092.823687304063 342.1944742149565L1092.823687304063 342.1944742149565L1092.823687304063 349.3353253108369L1058.2569125301995 349.3353253108369L1058.2569125301995 366.9241473316632Q1058.2569125301995 372.2323906241761 1059.2469420331681 375.5605749107517Q1060.215907078627 378.90982365483717 1062.427675117174 380.4896579680851Q1064.618378698211 382.0905567388429 1068.1150786448663 382.0905567388429L1068.1150786448663 382.0905567388429Q1071.7592297940914 382.0905567388429 1073.6550309699887 380.34220676551524Q1075.5508321458863 378.5938567921876 1076.2248947862054 375.328865878142Q1076.8989574265245 372.08493942160635 1076.8989574265245 367.6824678020223L1076.8989574265245 367.6824678020223L1076.8989574265245 362.3742245095094L1092.6762361014933 362.3742245095094L1092.6762361014933 365.7024087960849Q1092.6762361014933 378.90982365483717 1087.0730904038408 386.49302835842695Q1081.4488802486783 394.07623306201685 1067.9676274422964 394.07623306201685ZM1058.2569125301995 335.833008046945L1058.2569125301995 340.53038207166867L1076.8989574265245 340.53038207166867L1076.8989574265245 332.65227496293926Q1076.8989574265245 327.17551601034666 1076.3091526162452 323.46817148859157Q1075.698283348456 319.7608269668366 1073.8024821725585 317.86502579093917Q1071.9066809966612 315.96922461504164 1067.7991117822166 315.96922461504164L1067.7991117822166 315.96922461504164Q1063.860058227852 315.96922461504164 1061.8168058493848 317.7807679608992Q1059.7735534709175 319.59231130675676 1059.0152330005585 323.931589553811Q1058.2569125301995 328.2498033433552 1058.2569125301995 335.833008046945L1058.2569125301995 335.833008046945Z " fill="#e9925f" transform="matrix(0.8006781785874625,0,0,0.8006781785874625,0,23.760785450820947)"/></g></svg>